<svg width="64" height="64" viewBox="0 0 64 64" fill="none" xmlns="http://www.w3.org/2000/svg">
<path d="M32.9137 10.5715C42.7905 10.5715 50.7955 18.559 50.8 28.4184C50.8 38.2735 42.795 46.2609 32.9182 46.2609H31.9206C30.5129 46.2609 29.4541 44.9778 29.7213 43.5957L31.444 34.6854C31.5512 34.1416 32.0292 33.7449 32.5876 33.7449H34.6827C36.0094 33.7449 37.086 32.6707 37.086 31.3469V29.6576C37.086 29.2564 37.2915 28.882 37.631 28.668L38.5199 28.102C38.6539 28.0173 38.6718 27.8212 38.5467 27.7142L37.6176 26.9163C37.2781 26.6222 37.0815 26.1987 37.0815 25.7485V24.7234C37.0815 23.6188 36.7026 22.6048 36.0655 21.8017C35.9066 21.6015 35.601 21.6938 35.5474 21.9437C34.8873 25.0222 32.9982 30.9425 27.991 33.259C27.8033 33.3437 27.6827 33.5309 27.6827 33.7404V51.1884C27.6827 52.4255 26.6798 53.4284 25.4427 53.4284H18C16.7629 53.4284 15.76 52.4255 15.76 51.1884V12.8115C15.76 11.5744 16.7629 10.5715 18 10.5715H32.9137Z" fill="#363738"/>
</svg>
