<svg width="24" height="24" viewBox="0 0 24 24" fill="none" xmlns="http://www.w3.org/2000/svg">
<path d="M18.4825 13.528C18.4033 13.6053 18.1042 13.936 17.8257 14.208C16.1926 15.9187 10.9489 18.6987 8.71911 19.5533C8.38047 19.6907 7.52431 19.9813 7.06687 20C6.62855 20 6.21072 19.904 5.812 19.7093C5.31496 19.4373 4.91624 19.0093 4.69776 18.504C4.55712 18.1533 4.33864 17.104 4.33864 17.0853C4.12016 15.9373 4 14.072 4 12.0107C4 10.0467 4.12016 8.25733 4.29904 7.092C4.31952 7.07333 4.538 5.76933 4.77696 5.32267C5.21528 4.50667 6.07144 4 6.98768 4H7.06687C7.66359 4.02 8.91847 4.52667 8.91847 4.54533C11.0281 5.40133 16.1735 8.084 17.8462 9.85333C17.8462 9.85333 18.3173 10.308 18.5221 10.592C18.8416 11 19 11.5053 19 12.0107C19 12.5747 18.8211 13.1 18.4825 13.528Z" fill="white"/>
</svg>
